<svg width="72" height="72" viewBox="0 0 72 72" fill="none" xmlns="http://www.w3.org/2000/svg">
    <path fill-rule="evenodd" clip-rule="evenodd" d="M27.5386 71H31.4063L31.9402 51.1369H40.0598L40.5938 71H44.4615C51.4083 69.3266 57.5701 65.6387 62.2943 60.5891L53.0711 4.29697C51.4089 3.40009 49.6683 2.63011 47.862 2H38.7389L39.1666 17.9088H32.8334L33.2611 2H24.1381C22.3318 2.63012 20.5911 3.40011 18.929 4.297L9.70581 60.5891C14.43 65.6387 20.5918 69.3266 27.5386 71ZM32.0999 45.1958H39.9001L39.271 21.7953H32.7289L32.0999 45.1958Z" fill="#2C2B28"/>
    <path d="M31.9376 51.1276H40.0597L40.5971 70H31.429L31.9376 51.1276Z" fill="#F1B51A"/>
    <path d="M32.6311 21.7491H39.2868L39.8785 45.2017H32.1073L32.6311 21.7491Z" fill="#F1B51A"/>
    <path d="M33.2581 1.99487H38.7338L39.2015 17.8993H32.7903L33.2581 1.99487Z" fill="#F1B51A"/>
    <circle cx="36" cy="36" r="35" stroke="#F1B51A" stroke-width="2"/>
</svg>
